<?xml version="1.0" encoding="utf-8"?>
<!-- Generator: Adobe Illustrator 27.1.1, SVG Export Plug-In . SVG Version: 6.00 Build 0)  -->
<svg version="1.1" id="Layer_1" xmlns="http://www.w3.org/2000/svg" xmlns:xlink="http://www.w3.org/1999/xlink" x="0px" y="0px"
	 viewBox="0 0 576.7 572.2" style="enable-background:new 0 0 576.7 572.2;" xml:space="preserve">
<style type="text/css">
	.st0{fill:#9AA0A6;}
</style>
<path class="st0" d="M242.1,469.8c-46,0.2-91.1-13.2-129.5-38.7S44.2,369.5,26.4,327C8.7,284.5,3.9,237.7,12.8,192.5
	s30.9-86.7,63.4-119.3c32.5-32.6,73.9-54.9,119.1-63.9s92-4.5,134.5,13.1c42.5,17.6,78.9,47.4,104.5,85.7
	c25.6,38.3,39.2,83.3,39.2,129.4c0,61.5-24.3,120.4-67.7,163.9S303.5,469.6,242.1,469.8L242.1,469.8z M242.1,49.8
	c-37.2-0.2-73.6,10.6-104.6,31.1c-31,20.5-55.2,49.7-69.6,84s-18.3,72-11.2,108.5s24.9,70,51.1,96.4c26.2,26.4,59.6,44.4,96.1,51.7
	s74.2,3.7,108.6-10.5s63.7-38.2,84.4-69.1s31.7-67.2,31.7-104.4c0.1-49.6-19.5-97.2-54.5-132.4C339.2,69.9,291.7,50,242.1,49.8
	L242.1,49.8z"/>
<path class="st0" d="M539,565L384.1,411l31.7-31.7l154.8,153.9L539,565z"/>
</svg>
